<?xml version="1.0" encoding="UTF-8"?> <svg xmlns="http://www.w3.org/2000/svg" width="22" height="18" viewBox="0 0 22 18" fill="none"> <path d="M21.4973 2.81025C22 4.815 22 9 22 9C22 9 22 13.185 21.4973 15.1898C21.2179 16.2979 20.4006 17.1698 19.3655 17.4645C17.4856 18 11 18 11 18C11 18 4.5177 18 2.6345 17.4645C1.595 17.1653 0.7788 16.2945 0.5027 15.1898C3.27826e-08 13.185 0 9 0 9C0 9 3.27826e-08 4.815 0.5027 2.81025C0.7821 1.70213 1.5994 0.83025 2.6345 0.5355C4.5177 -2.01166e-07 11 0 11 0C11 0 17.4856 -2.01166e-07 19.3655 0.5355C20.405 0.83475 21.2212 1.7055 21.4973 2.81025V2.81025ZM8.8 12.9375L15.4 9L8.8 5.0625V12.9375Z" fill="white"></path> </svg> 